<svg width="488.75454101562497px" height="122.98182067871093px" xmlns="http://www.w3.org/2000/svg" viewBox="5.622729492187517 13.509089660644534 488.75454101562497 122.98182067871093" style="background: none;" preserveAspectRatio="xMidYMid"><defs><filter id="editing-raise" x="-100%" y="-100%" width="300%" height="300%"><feFlood flood-color="#ffffff" result="flood-surface"></feFlood><feFlood flood-color="#0a0a0a" result="flood-extrude"></feFlood><feMorphology operator="erode" in="SourceAlpha" radius="1" result="erode"></feMorphology><feConvolveMatrix in="erode" result="shadow" order="11,8" divisor="1" kernelMatrix="0 0 0 1 1 1 1 1 0 0 0 0 0 1 0 0 0 0 0 1 0 0 0 0 1 0 0 0 0 0 1 0 0 0 0 1 0 0 0 0 0 1 0 0 0 0 1 0 0 0 0 0 1 0 0 0 0 0 1 0 0 0 1 0 0 0 0 0 0 1 1 0 1 1 0 0 0 0 0 0 0 0 1 0 0 0 0 0"></feConvolveMatrix><feOffset dx="0" dy="4" in="shadow" result="offset"></feOffset><feGaussianBlur in="offset" stdDeviation="0.2" result="blur"></feGaussianBlur><feComposite operator="in" in="flood-extrude" in2="blur" result="extrude"></feComposite><feMorphology operator="erode" in="SourceAlpha" radius="1" result="erode2"></feMorphology><feConvolveMatrix in="erode2" result="out" order="4,4" divisor="1" kernelMatrix="0 1 1 0 1 0 0 1 1 0 0 1 0 1 1 0 "></feConvolveMatrix><feComposite operator="in" in="flood-surface" in2="out" result="text"></feComposite><feMerge><feMergeNode in="extrude"></feMergeNode><feMergeNode in="text"></feMergeNode></feMerge></filter></defs><g filter="url(#editing-raise)"><g transform="translate(114.30610138177872, 100.50000190734863)"><path d="M-0.31-32.13L-0.31-35.70L26.62-35.70L26.62-32.13L15.30-32.13L15.30 0L11.02 0L11.02-32.13L-0.31-32.13ZM29.43-23.00L29.43-25.50L31.21-25.50L31.21-25.50Q32.13-25.50 32.46-25.37L32.46-25.37L32.46-25.37Q32.79-25.25 33.41-24.74L33.41-24.74L33.41-24.74Q34.22-24.07 34.22-23.46L34.22-23.46L34.42-23.46L34.42-23.46Q34.42-24.07 35.55-24.74L35.55-24.74L35.55-24.74Q36.47-25.30 36.80-25.40L36.80-25.40L36.80-25.40Q37.13-25.50 38.05-25.50L38.05-25.50L42.74-25.50L42.74-25.50Q43.96-25.50 45.19-24.48L45.19-24.48L46.41-23.46L43.35-20.91L42.74-21.42L42.74-21.42Q42.28-21.78 42.02-21.85L42.02-21.85L42.02-21.85Q41.77-21.93 40.85-21.93L40.85-21.93L38.66-21.93L38.66-21.93Q37.74-21.93 37.41-21.83L37.41-21.83L37.41-21.83Q37.08-21.73 36.16-21.17L36.16-21.17L36.16-21.17Q35.24-20.60 35.09-20.35L35.09-20.35L35.09-20.35Q34.94-20.09 34.94-19.33L34.94-19.33L34.94 0L30.65 0L30.65-19.84L30.65-19.84Q30.65-20.60 30.57-20.83L30.57-20.83L30.57-20.83Q30.50-21.06 30.04-21.42L30.04-21.42L30.04-21.42Q29.58-21.78 29.50-22.01L29.50-22.01L29.50-22.01Q29.43-22.24 29.43-23.00L29.43-23.00ZM55.23-25.50L55.23 0L50.95 0L50.95-25.50L55.23-25.50ZM55.69-33.46L55.69-33.46L55.69-33.05L55.69-33.05Q55.69-32.08 55.62-31.82L55.62-31.82L55.62-31.82Q55.54-31.57 55.13-31.21L55.13-31.21L55.13-31.21Q54.72-30.80 53.24-30.80L53.24-30.80L52.99-30.80L52.99-30.80Q51.87-30.80 51.61-30.86L51.61-30.86L51.61-30.86Q51.36-30.91 51-31.21L51-31.21L51-31.21Q50.64-31.57 50.57-31.82L50.57-31.82L50.57-31.82Q50.49-32.08 50.49-33.05L50.49-33.05L50.49-33.46L50.49-33.46Q50.49-34.43 50.57-34.68L50.57-34.68L50.57-34.68Q50.64-34.94 51.05-35.29L51.05-35.29L51.05-35.29Q51.36-35.60 51.61-35.65L51.61-35.65L51.61-35.65Q51.87-35.70 52.99-35.70L52.99-35.70L53.19-35.70L53.19-35.70Q54.72-35.70 55.18-35.29L55.18-35.29L55.18-35.29Q55.54-34.94 55.62-34.68L55.62-34.68L55.62-34.68Q55.69-34.43 55.69-33.46ZM61.56-23.00L61.56-25.50L63.34-25.50L63.34-25.50Q64.26-25.50 64.59-25.37L64.59-25.37L64.59-25.37Q64.92-25.25 65.53-24.74L65.53-24.74L65.53-24.74Q66.35-24.07 66.35-23.46L66.35-23.46L66.56-23.46L66.56-23.46Q66.56-24.07 67.68-24.74L67.68-24.74L67.68-24.74Q68.59-25.30 68.93-25.40L68.93-25.40L68.93-25.40Q69.26-25.50 70.18-25.50L70.18-25.50L79.20-25.50L79.20-25.50Q80.43-25.50 81.65-24.48L81.65-24.48L82.88-23.46L82.88-23.46Q84.10-22.44 84.10-20.91L84.10-20.91L84.10 0L79.81 0L79.81-19.84L79.81-19.84Q79.81-20.60 79.74-20.83L79.74-20.83L79.74-20.83Q79.66-21.06 79.20-21.42L79.20-21.42L79.20-21.42Q78.74-21.78 78.49-21.85L78.49-21.85L78.49-21.85Q78.23-21.93 77.32-21.93L77.32-21.93L70.79-21.93L70.79-21.93Q69.87-21.93 69.54-21.83L69.54-21.83L69.54-21.83Q69.21-21.73 68.29-21.17L68.29-21.17L68.29-21.17Q67.37-20.60 67.22-20.35L67.22-20.35L67.22-20.35Q67.06-20.09 67.06-19.33L67.06-19.33L67.06 0L62.78 0L62.78-19.84L62.78-19.84Q62.78-20.60 62.70-20.83L62.70-20.83L62.70-20.83Q62.63-21.06 62.17-21.42L62.17-21.42L62.17-21.42Q61.71-21.78 61.63-22.01L61.63-22.01L61.63-22.01Q61.56-22.24 61.56-23.00L61.56-23.00ZM94.71-25.50L94.71 0L90.42 0L90.42-25.50L94.71-25.50ZM95.17-33.46L95.17-33.46L95.17-33.05L95.17-33.05Q95.17-32.08 95.09-31.82L95.09-31.82L95.09-31.82Q95.01-31.57 94.61-31.21L94.61-31.21L94.61-31.21Q94.20-30.80 92.72-30.80L92.72-30.80L92.46-30.80L92.46-30.80Q91.34-30.80 91.09-30.86L91.09-30.86L91.09-30.86Q90.83-30.91 90.47-31.21L90.47-31.21L90.47-31.21Q90.12-31.57 90.04-31.82L90.04-31.82L90.04-31.82Q89.96-32.08 89.96-33.05L89.96-33.05L89.96-33.46L89.96-33.46Q89.96-34.43 90.04-34.68L90.04-34.68L90.04-34.68Q90.12-34.94 90.53-35.29L90.53-35.29L90.53-35.29Q90.83-35.60 91.09-35.65L91.09-35.65L91.09-35.65Q91.34-35.70 92.46-35.70L92.46-35.70L92.67-35.70L92.67-35.70Q94.20-35.70 94.66-35.29L94.66-35.29L94.66-35.29Q95.01-34.94 95.09-34.68L95.09-34.68L95.09-34.68Q95.17-34.43 95.17-33.46ZM102.61-32.64L106.90-32.64L106.90-25.50L113.42-25.50L113.42-25.50Q114.09-24.99 114.21-24.71L114.21-24.71L114.21-24.71Q114.34-24.43 114.34-23.26L114.34-23.26L114.34-21.93L106.90-21.93L106.90-5.66L106.90-5.66Q106.90-4.90 106.97-4.67L106.97-4.67L106.97-4.67Q107.05-4.44 107.51-4.08L107.51-4.08L107.51-4.08Q107.97-3.72 108.22-3.65L108.22-3.65L108.22-3.65Q108.48-3.57 109.40-3.57L109.40-3.57L114.04-3.57L114.04-3.57Q114.70-3.06 114.83-2.78L114.83-2.78L114.83-2.78Q114.95-2.50 114.95-1.33L114.95-1.33L114.95 0L107.51 0L107.51 0Q106.28 0 105.06-1.02L105.06-1.02L103.84-2.04L103.84-2.04Q102.61-3.06 102.61-4.59L102.61-4.59L102.61-21.93L100.16-21.93L100.16-21.93Q99.50-22.44 99.37-22.72L99.37-22.72L99.37-22.72Q99.25-23.00 99.25-24.17L99.25-24.17L99.25-25.50L102.61-25.50L102.61-32.64ZM136.73 13.26L136.73 13.26L122.04 13.26L122.04 11.93L122.04 11.93Q122.04 10.76 122.17 10.48L122.17 10.48L122.17 10.48Q122.30 10.20 122.96 9.69L122.96 9.69L135.46 9.69L135.46 9.69Q136.37 9.69 136.63 9.61L136.63 9.61L136.63 9.61Q136.88 9.54 137.34 9.18L137.34 9.18L137.34 9.18Q137.80 8.82 137.88 8.59L137.88 8.59L137.88 8.59Q137.96 8.36 137.96 7.60L137.96 7.60L137.96-2.45L137.75-2.45L137.75-2.45Q137.65-1.99 136.53-1.02L136.53-1.02L136.53-1.02Q135.30 0 134.08 0L134.08 0L125.21 0L125.21 0Q123.98 0 122.76-1.02L122.76-1.02L121.53-2.04L121.53-2.04Q120.31-3.06 120.31-4.59L120.31-4.59L120.31-25.50L124.59-25.50L124.59-5.66L124.59-5.66Q124.59-4.90 124.67-4.67L124.67-4.67L124.67-4.67Q124.75-4.44 125.21-4.08L125.21-4.08L125.21-4.08Q125.66-3.72 125.92-3.65L125.92-3.65L125.92-3.65Q126.17-3.57 127.09-3.57L127.09-3.57L133.62-3.57L133.62-3.57Q134.54-3.57 134.87-3.67L134.87-3.67L134.87-3.67Q135.20-3.77 136.12-4.33L136.12-4.33L136.12-4.33Q137.04-4.90 137.19-5.15L137.19-5.15L137.19-5.15Q137.34-5.41 137.34-6.17L137.34-6.17L137.34-25.50L141.63-25.50L141.63 8.67L141.63 8.67Q141.63 10.20 140.40 11.22L140.40 11.22L139.18 12.24L139.18 12.24Q137.96 13.26 136.73 13.26ZM176.00-31.11L176.00-29.07L171.72-29.07L171.72-30.04L171.72-30.04Q171.72-30.80 171.64-31.03L171.64-31.03L171.64-31.03Q171.56-31.26 171.11-31.62L171.11-31.62L171.11-31.62Q170.65-31.98 170.39-32.05L170.39-32.05L170.39-32.05Q170.14-32.13 169.22-32.13L169.22-32.13L156.57-32.13L156.57-32.13Q155.65-32.13 155.40-32.05L155.40-32.05L155.40-32.05Q155.14-31.98 154.68-31.62L154.68-31.62L154.68-31.62Q154.22-31.26 154.15-31.03L154.15-31.03L154.15-31.03Q154.07-30.80 154.07-30.04L154.07-30.04L154.07-5.66L154.07-5.66Q154.07-4.90 154.15-4.67L154.15-4.67L154.15-4.67Q154.22-4.44 154.68-4.08L154.68-4.08L154.68-4.08Q155.14-3.72 155.40-3.65L155.40-3.65L155.40-3.65Q155.65-3.57 156.57-3.57L156.57-3.57L169.22-3.57L169.22-3.57Q170.14-3.57 170.39-3.65L170.39-3.65L170.39-3.65Q170.65-3.72 171.11-4.08L171.11-4.08L171.11-4.08Q171.56-4.44 171.64-4.67L171.64-4.67L171.64-4.67Q171.72-4.90 171.72-5.66L171.72-5.66L171.72-6.63L176.00-6.63L176.00-4.59L176.00-4.59Q176.00-3.06 174.78-2.04L174.78-2.04L173.55-1.02L173.55-1.02Q172.33 0 171.11 0L171.11 0L154.68 0L154.68 0Q153.46 0 152.24-1.02L152.24-1.02L151.01-2.04L151.01-2.04Q149.79-3.06 149.79-4.59L149.79-4.59L149.79-31.11L149.79-31.11Q149.79-32.64 151.01-33.66L151.01-33.66L152.24-34.68L152.24-34.68Q153.46-35.70 154.68-35.70L154.68-35.70L171.11-35.70L171.11-35.70Q172.33-35.70 173.55-34.68L173.55-34.68L174.78-33.66L174.78-33.66Q176.00-32.64 176.00-31.11L176.00-31.11ZM189.11-25.50L189.11-25.50L198.03-25.50L198.03-25.50Q199.26-25.50 200.48-24.48L200.48-24.48L201.71-23.46L201.71-23.46Q202.93-22.44 202.93-20.91L202.93-20.91L202.93 0L198.65 0L198.65-19.84L198.65-19.84Q198.65-20.60 198.57-20.83L198.57-20.83L198.57-20.83Q198.49-21.06 198.03-21.42L198.03-21.42L198.03-21.42Q197.57-21.78 197.32-21.85L197.32-21.85L197.32-21.85Q197.06-21.93 196.15-21.93L196.15-21.93L189.62-21.93L189.62-21.93Q188.65-21.93 188.32-21.83L188.32-21.83L188.32-21.83Q187.99-21.73 187.07-21.17L187.07-21.17L187.07-21.17Q186.15-20.60 186.00-20.35L186.00-20.35L186.00-20.35Q185.84-20.09 185.84-19.33L185.84-19.33L185.84 0L181.56 0L181.56-37.74L185.84-37.74L185.84-23.10L186.05-23.10L186.05-23.10Q186.05-23.56 187.17-24.53L187.17-24.53L187.17-24.53Q188.29-25.50 189.11-25.50ZM227.00-2.04L227.00-2.04L226.80-2.04L226.80-2.04Q226.80-1.43 225.68-0.77L225.68-0.77L225.68-0.77Q224.76-0.20 224.43-0.10L224.43-0.10L224.43-0.10Q224.09 0 223.18 0L223.18 0L214.46 0L214.46 0Q213.23 0 212.01-1.02L212.01-1.02L210.78-2.04L210.78-2.04Q209.56-3.06 209.56-4.59L209.56-4.59L209.56-10.71L209.56-10.71Q209.56-12.24 210.78-13.26L210.78-13.26L212.01-14.28L212.01-14.28Q213.23-15.30 214.46-15.30L214.46-15.30L223.58-15.30L223.58-15.30Q224.55-15.30 224.81-15.22L224.81-15.22L224.81-15.22Q225.06-15.15 225.47-14.79L225.47-14.79L225.47-14.79Q226.08-14.28 226.08-13.77L226.08-13.77L226.29-13.77L226.29-19.84L226.29-19.84Q226.29-20.60 226.21-20.83L226.21-20.83L226.21-20.83Q226.13-21.06 225.68-21.42L225.68-21.42L225.68-21.42Q225.22-21.78 224.96-21.85L224.96-21.85L224.96-21.85Q224.71-21.93 223.79-21.93L223.79-21.93L215.53-21.93L215.53-21.93Q214.61-21.93 214.28-21.80L214.28-21.80L214.28-21.80Q213.94-21.68 213.03-20.91L213.03-20.91L209.97-23.46L211.19-24.48L211.19-24.48Q212.11-25.25 212.44-25.37L212.44-25.37L212.44-25.37Q212.77-25.50 213.69-25.50L213.69-25.50L225.68-25.50L225.68-25.50Q226.90-25.50 228.12-24.48L228.12-24.48L229.35-23.46L229.35-23.46Q230.57-22.44 230.57-20.91L230.57-20.91L230.57-5.66L230.57-5.66Q230.57-4.90 230.65-4.67L230.65-4.67L230.65-4.67Q230.72-4.44 231.18-4.08L231.18-4.08L231.18-4.08Q231.64-3.72 231.72-3.49L231.72-3.49L231.72-3.49Q231.80-3.26 231.80-2.50L231.80-2.50L231.80 0L230.01 0L230.01 0Q229.09 0 228.76-0.13L228.76-0.13L228.76-0.13Q228.43-0.26 227.82-0.77L227.82-0.77L227.82-0.77Q227.00-1.43 227.00-2.04ZM213.84-9.64L213.84-9.64L213.84-5.66L213.84-5.66Q213.84-4.90 213.92-4.67L213.92-4.67L213.92-4.67Q214.00-4.44 214.46-4.08L214.46-4.08L214.46-4.08Q214.91-3.72 215.17-3.65L215.17-3.65L215.17-3.65Q215.42-3.57 216.34-3.57L216.34-3.57L222.56-3.57L222.56-3.57Q223.48-3.57 223.81-3.67L223.81-3.67L223.81-3.67Q224.15-3.77 225.06-4.33L225.06-4.33L225.06-4.33Q225.98-4.90 226.13-5.15L226.13-5.15L226.13-5.15Q226.29-5.41 226.29-6.17L226.29-6.17L226.29-9.64L226.29-9.64Q226.29-10.40 226.21-10.63L226.21-10.63L226.21-10.63Q226.13-10.86 225.68-11.22L225.68-11.22L225.68-11.22Q225.22-11.58 224.96-11.65L224.96-11.65L224.96-11.65Q224.71-11.73 223.79-11.73L223.79-11.73L216.34-11.73L216.34-11.73Q215.42-11.73 215.17-11.65L215.17-11.65L215.17-11.65Q214.91-11.58 214.46-11.22L214.46-11.22L214.46-11.22Q214.00-10.86 213.92-10.63L213.92-10.63L213.92-10.63Q213.84-10.40 213.84-9.64ZM242.40-25.50L242.40 0L238.12 0L238.12-25.50L242.40-25.50ZM242.86-33.46L242.86-33.46L242.86-33.05L242.86-33.05Q242.86-32.08 242.79-31.82L242.79-31.82L242.79-31.82Q242.71-31.57 242.30-31.21L242.30-31.21L242.30-31.21Q241.89-30.80 240.41-30.80L240.41-30.80L240.16-30.80L240.16-30.80Q239.04-30.80 238.78-30.86L238.78-30.86L238.78-30.86Q238.53-30.91 238.17-31.21L238.17-31.21L238.17-31.21Q237.81-31.57 237.74-31.82L237.74-31.82L237.74-31.82Q237.66-32.08 237.66-33.05L237.66-33.05L237.66-33.46L237.66-33.46Q237.66-34.43 237.74-34.68L237.74-34.68L237.74-34.68Q237.81-34.94 238.22-35.29L238.22-35.29L238.22-35.29Q238.53-35.60 238.78-35.65L238.78-35.65L238.78-35.65Q239.04-35.70 240.16-35.70L240.16-35.70L240.36-35.70L240.36-35.70Q241.89-35.70 242.35-35.29L242.35-35.29L242.35-35.29Q242.71-34.94 242.79-34.68L242.79-34.68L242.79-34.68Q242.86-34.43 242.86-33.46ZM248.73-23.00L248.73-25.50L250.51-25.50L250.51-25.50Q251.43-25.50 251.76-25.37L251.76-25.37L251.76-25.37Q252.09-25.25 252.71-24.74L252.71-24.74L252.71-24.74Q253.52-24.07 253.52-23.46L253.52-23.46L253.73-23.46L253.73-23.46Q253.73-24.07 254.85-24.74L254.85-24.74L254.85-24.74Q255.77-25.30 256.10-25.40L256.10-25.40L256.10-25.40Q256.43-25.50 257.35-25.50L257.35-25.50L266.37-25.50L266.37-25.50Q267.60-25.50 268.82-24.48L268.82-24.48L270.05-23.46L270.05-23.46Q271.27-22.44 271.27-20.91L271.27-20.91L271.27 0L266.99 0L266.99-19.84L266.99-19.84Q266.99-20.60 266.91-20.83L266.91-20.83L266.91-20.83Q266.83-21.06 266.37-21.42L266.37-21.42L266.37-21.42Q265.91-21.78 265.66-21.85L265.66-21.85L265.66-21.85Q265.40-21.93 264.49-21.93L264.49-21.93L257.96-21.93L257.96-21.93Q257.04-21.93 256.71-21.83L256.71-21.83L256.71-21.83Q256.38-21.73 255.46-21.17L255.46-21.17L255.46-21.17Q254.54-20.60 254.39-20.35L254.39-20.35L254.39-20.35Q254.24-20.09 254.24-19.33L254.24-19.33L254.24 0L249.95 0L249.95-19.84L249.95-19.84Q249.95-20.60 249.87-20.83L249.87-20.83L249.87-20.83Q249.80-21.06 249.34-21.42L249.34-21.42L249.34-21.42Q248.88-21.78 248.80-22.01L248.80-22.01L248.80-22.01Q248.73-22.24 248.73-23.00L248.73-23.00Z"></path></g></g><style>text {
  font-size: 64px;
  font-family: Arial Black;
  dominant-baseline: central;
  text-anchor: middle;
}</style></svg>